<svg width="21" height="18" viewBox="0 0 21 18" fill="none" xmlns="http://www.w3.org/2000/svg">
<path fill-rule="evenodd" clip-rule="evenodd" d="M21 8.25C21.0022 5.87986 19.4161 3.80217 17.1292 3.17953C14.8423 2.5569 12.4218 3.54375 11.2222 5.58787C10.0225 7.632 10.3412 10.2264 12 11.9194V17.25C11.9998 17.5101 12.1344 17.7517 12.3556 17.8884C12.5768 18.0252 12.853 18.0376 13.0856 17.9212L15.75 16.5881L18.4144 17.9212C18.647 18.0376 18.9232 18.0252 19.1444 17.8884C19.3656 17.7517 19.5002 17.5101 19.5 17.25V11.9194C20.4619 10.9403 21.0006 9.62252 21 8.25ZM15.75 4.5C17.8211 4.5 19.5 6.17893 19.5 8.25C19.5 10.3211 17.8211 12 15.75 12C13.6789 12 12 10.3211 12 8.25C12 6.17893 13.6789 4.5 15.75 4.5ZM16.0856 15.0788C15.8744 14.973 15.6256 14.973 15.4144 15.0788L13.5 16.0369V12.9928C14.9238 13.6691 16.5762 13.6691 18 12.9928V16.0369L16.0856 15.0788ZM10.5 14.25C10.5 14.6642 10.1642 15 9.75 15H1.5C0.671573 15 0 14.3284 0 13.5V1.5C0 0.671573 0.671573 0 1.5 0H18C18.8284 0 19.5 0.671573 19.5 1.5C19.5 1.91421 19.1642 2.25 18.75 2.25C18.3358 2.25 18 1.91421 18 1.5H1.5V13.5H9.75C10.1642 13.5 10.5 13.8358 10.5 14.25ZM9 9C9 9.41421 8.66421 9.75 8.25 9.75H4.5C4.08579 9.75 3.75 9.41421 3.75 9C3.75 8.58579 4.08579 8.25 4.5 8.25H8.25C8.66421 8.25 9 8.58579 9 9ZM9 6C9 6.41421 8.66421 6.75 8.25 6.75H4.5C4.08579 6.75 3.75 6.41421 3.75 6C3.75 5.58579 4.08579 5.25 4.5 5.25H8.25C8.66421 5.25 9 5.58579 9 6Z" fill="#0D121C"/>
</svg>
