<svg width="14" height="14" viewBox="0 0 14 14" fill="none" xmlns="http://www.w3.org/2000/svg">
<path fill-rule="evenodd" clip-rule="evenodd" d="M12.099 6.14937C12.3933 6.08607 12.5027 6.12694 12.5267 6.13844C12.5365 6.15897 12.5589 6.2263 12.5434 6.38517C12.5209 6.6158 12.424 6.94217 12.2264 7.35067C11.8339 8.16167 11.1101 9.16167 10.1359 10.1359C9.16166 11.1101 8.1617 11.8339 7.35067 12.2264C6.94217 12.424 6.6158 12.5209 6.38517 12.5434C6.22633 12.5589 6.159 12.5365 6.13843 12.5267C6.12693 12.5027 6.08607 12.3933 6.14937 12.099C6.22603 11.7424 6.43026 11.2625 6.77523 10.7012C7.19313 10.0212 7.79053 9.26544 8.528 8.52797C9.26543 7.79054 10.0212 7.1931 10.7012 6.7752C11.2625 6.43027 11.7424 6.22604 12.099 6.14937ZM0.411262 8.6874L5.19387 13.47C5.56773 13.8439 6.07487 13.9133 6.51453 13.8704C6.96013 13.827 7.44557 13.6617 7.9314 13.4266C8.90903 12.9535 10.0279 12.1295 11.0787 11.0787C12.1295 10.0279 12.9535 8.90904 13.4266 7.9314C13.6617 7.44557 13.827 6.96014 13.8704 6.51454C13.9133 6.07487 13.8439 5.56774 13.47 5.19387L8.6874 0.411259C8.22487 -0.051271 7.56613 -0.0507877 7.036 0.0632223C6.47667 0.183512 5.85177 0.468699 5.2205 0.856639C4.4399 1.33636 3.60333 2.00181 2.80257 2.80257C2.00181 3.6033 1.33636 4.4399 0.856639 5.2205C0.468702 5.85177 0.183515 6.47667 0.0632252 7.036C-0.0507882 7.56614 -0.0512714 8.22487 0.411262 8.6874Z" fill="#0D121C"/>
</svg>
