<svg width="21" height="18" viewBox="0 0 21 18" fill="none" xmlns="http://www.w3.org/2000/svg">
<path fill-rule="evenodd" clip-rule="evenodd" d="M19.5 0H13.5C12.3197 0 11.2082 0.555728 10.5 1.5C9.7918 0.555728 8.68034 0 7.5 0H1.5C0.671573 0 0 0.671573 0 1.5V13.5C0 14.3284 0.671573 15 1.5 15H7.5C8.74264 15 9.75 16.0074 9.75 17.25C9.75 17.6642 10.0858 18 10.5 18C10.9142 18 11.25 17.6642 11.25 17.25C11.25 16.0074 12.2574 15 13.5 15H19.5C20.3284 15 21 14.3284 21 13.5V1.5C21 0.671573 20.3284 0 19.5 0ZM7.5 13.5H1.5V1.5H7.5C8.74264 1.5 9.75 2.50736 9.75 3.75V14.25C9.1015 13.762 8.3116 13.4987 7.5 13.5ZM19.5 13.5H13.5C12.6884 13.4987 11.8985 13.762 11.25 14.25V3.75C11.25 2.50736 12.2574 1.5 13.5 1.5H19.5V13.5Z" fill="#0D121C"/>
</svg>
