<svg width="17" height="20" viewBox="0 0 17 20" fill="none" xmlns="http://www.w3.org/2000/svg">
<path fill-rule="evenodd" clip-rule="evenodd" d="M16.2806 5.46938L11.0306 0.219375C10.8899 0.0787585 10.699 -0.000156403 10.5 0H1.5C0.671573 0 0 0.671573 0 1.5V18C0 18.8284 0.671573 19.5 1.5 19.5H15C15.8284 19.5 16.5 18.8284 16.5 18V6C16.5002 5.80103 16.4212 5.61015 16.2806 5.46938ZM11.25 2.56031L13.9397 5.25H11.25V2.56031ZM15 18H1.5V1.5H9.75V6C9.75 6.41421 10.0858 6.75 10.5 6.75H15V18ZM12 10.5C12 10.9142 11.6642 11.25 11.25 11.25H5.25C4.83579 11.25 4.5 10.9142 4.5 10.5C4.5 10.0858 4.83579 9.75 5.25 9.75H11.25C11.6642 9.75 12 10.0858 12 10.5ZM12 13.5C12 13.9142 11.6642 14.25 11.25 14.25H5.25C4.83579 14.25 4.5 13.9142 4.5 13.5C4.5 13.0858 4.83579 12.75 5.25 12.75H11.25C11.6642 12.75 12 13.0858 12 13.5Z" fill="#0D121C"/>
</svg>
